---
tags: [consulting, inspired, technology, software, development]
category: Brand
version: "1.00"
unicode: "faef"
---
<svg width="24" height="24" viewBox="0 0 24 24" stroke="currentColor" stroke-width="1" fill="currentColor"
  stroke-linecap="round" stroke-linejoin="round">
  <path d="M13.4,12.6v-1.7H9.8v1.7h1.5h0v2.3l1,0.6l0.3-0.5l-0.7-0.4v-1.9H13.4z" />
  <path d="M22.5,8.9l0.6-0.4V4.1l-3.9-2.2l-0.6,0.4l3.9,2.2V8.9" />
  <path d="M6.4,18.5l-3.3-1.9v-3.8l-0.5,0.3v3.8l3.3,1.9L6.4,18.5" />
  <path d="M11.6,0.7L6.7,3.5v0.7l4.9-2.7l8.6,4.8v8.6l0.6-0.3V5.9L11.6,0.7" />
  <path d="M11.6,3.9L4.8,7.8v7.8l3.3,1.9l1.7,2.9h3.6l0.3-0.5h-3.6l-1.6-2.7l-3.2-1.8V8.1l6.3-3.6l6.3,3.6v7.2l-3.3,1.9l0.5,0.3
	l3.3-1.9V7.8L11.6,3.9z" />
  <path d="M13,22.1h-2.9l0.3,0.5h2.3L13,22.1" />
</svg>