---
tags: [consulting, inspired, technology, software, development]
category: Brand
version: "1.00"
unicode: "faef"
---
<svg viewBox="0 40 255 150">
  <g fill="currentColor" stroke="currentColor" stroke-width="2">
    <path
      d="M139.69 117.68 L139.69 105.16 L112.37 105.16 L112.37 117.68 L123.76 117.68 L124.03 117.68 L124.03 134.69 L131.57 139.12 L133.6 135.67 L128.03 132.4 L128.03 117.68 L139.69 117.68 Z" />
    <path d="M193.15 94.99 L197.15 92.7 L197.15 64.34 L172.48 50.17 L168.46 52.48 L193.15 66.65 L193.15 94.99" />
    <path d="M93.49 152.22 L68.79 138.04 L68.79 109.72 L64.79 112.01 L64.79 140.35 L89.47 154.52 L93.49 152.22" />
    <path
      d="M126.04 34.84 L93.48 53.53 L93.48 58.15 L126.04 39.46 L183.28 72.32 L183.28 131.32 L187.28 129.02 L187.28 70.01 L126.04 34.84" />
    <path
      d="M126.04 46.18 L74.66 75.68 L74.66 134.68 L99.87 149.16 L112.54 170.96 L139.53 170.96 L141.86 166.96 L114.84 166.96 L102.79 146.22 L78.66 132.37 L78.66 78 L126.04 50.8 L173.4 77.99 L173.4 132.37 L148.71 146.55 L152.73 148.86 L177.4 134.69 L177.4 75.68 L126.04 46.18 Z" />
    <path d="M136.91 175.47 L115.16 175.47 L117.48 179.47 L134.59 179.47 L136.91 175.47" />
  </g>
</svg>